<?xml version="1.0" encoding="utf-8"?><svg xmlns="http://www.w3.org/2000/svg" xmlns:xlink="http://www.w3.org/1999/xlink"><symbol fill="none" viewBox="0 0 18 14" id="burger" xmlns="http://www.w3.org/2000/svg"><path d="M0 0h18v2H0V0zm0 6h18v2H0V6zm0 6h18v2H0v-2z" fill="#fff"/></symbol><symbol fill="none" viewBox="0 0 20 20" id="close" xmlns="http://www.w3.org/2000/svg"><path fill-rule="evenodd" clip-rule="evenodd" d="M19.731.269a.917.917 0 0 0-1.297 0L10 8.702 1.566.27A.917.917 0 1 0 .27 1.566L8.702 10 .27 18.434a.917.917 0 1 0 1.297 1.297L10 11.297l8.434 8.434a.917.917 0 1 0 1.297-1.297L11.297 10l8.434-8.434a.917.917 0 0 0 0-1.297z" fill="#fff"/></symbol><symbol viewBox="0 0 100 100" fill="none" id="tg" xmlns="http://www.w3.org/2000/svg"><path fill-rule="evenodd" clip-rule="evenodd" d="M50 100c27.614 0 50-22.386 50-50S77.614 0 50 0 0 22.386 0 50s22.386 50 50 50Zm21.977-68.056c.386-4.38-4.24-2.576-4.24-2.576-3.415 1.414-6.937 2.85-10.497 4.302-11.04 4.503-22.444 9.155-32.159 13.734-5.268 1.932-2.184 3.864-2.184 3.864l8.351 2.577c3.855 1.16 5.91-.129 5.91-.129l17.988-12.238c6.424-4.38 4.882-.773 3.34.773l-13.49 12.882c-2.056 1.804-1.028 3.35-.129 4.123 2.55 2.249 8.82 6.364 11.557 8.16.712.467 1.185.778 1.292.858.642.515 4.111 2.834 6.424 2.319 2.313-.516 2.57-3.479 2.57-3.479l3.083-20.226c.462-3.511.993-6.886 1.417-9.582.4-2.546.705-4.485.767-5.362Z" fill="#fff"/></symbol><symbol viewBox="0 0 100 100" fill="none" id="vk" xmlns="http://www.w3.org/2000/svg"><path fill-rule="evenodd" clip-rule="evenodd" d="M50 100c27.614 0 50-22.386 50-50S77.614 0 50 0 0 22.386 0 50s22.386 50 50 50ZM25 34c.406 19.488 10.15 31.2 27.233 31.2h.968V54.05c6.278.625 11.024 5.216 12.93 11.15H75c-2.436-8.87-8.838-13.773-12.836-15.647C66.162 47.242 71.783 41.62 73.126 34h-8.058c-1.749 6.184-6.932 11.805-11.867 12.336V34h-8.057v21.611C40.147 54.362 33.838 48.304 33.556 34H25Z" fill="#fff"/></symbol><symbol viewBox="0 0 100 100" fill="none" id="wa" xmlns="http://www.w3.org/2000/svg"><path fill-rule="evenodd" clip-rule="evenodd" d="M50 100c27.614 0 50-22.386 50-50S77.614 0 50 0 0 22.386 0 50s22.386 50 50 50Zm19.763-71.007c-5.146-5.152-11.99-7.99-19.28-7.993-15.021 0-27.248 12.225-27.254 27.252a27.208 27.208 0 0 0 3.638 13.625L23 76l14.448-3.79a27.228 27.228 0 0 0 13.023 3.318h.011c15.02 0 27.248-12.227 27.254-27.253.005-7.283-2.827-14.13-7.973-19.282Zm-6.854 24.966c-.682-.341-4.03-1.988-4.654-2.216-.624-.227-1.078-.34-1.532.341-.454.683-1.759 2.216-2.156 2.67-.398.455-.795.512-1.475.17-.112-.055-.264-.121-.451-.202-.96-.416-2.85-1.236-5.026-3.178-2.024-1.806-3.391-4.036-3.788-4.717-.398-.682-.043-1.05.298-1.39.204-.203.439-.49.674-.775.117-.143.234-.285.347-.417.288-.337.414-.593.584-.94l.097-.196c.227-.455.114-.852-.056-1.194-.114-.227-.76-1.798-1.345-3.223-.29-.708-.567-1.38-.755-1.833-.488-1.172-.983-1.169-1.38-1.167-.052 0-.103.001-.152-.001-.397-.02-.852-.024-1.305-.024-.454 0-1.192.17-1.817.852l-.134.144c-.71.758-2.249 2.402-2.249 5.537 0 3.344 2.428 6.575 2.778 7.041l.003.003.118.168c.813 1.166 5.128 7.357 11.515 10.115a38.991 38.991 0 0 0 3.882 1.434c1.632.519 3.116.446 4.29.27 1.309-.195 4.029-1.647 4.596-3.237.568-1.59.568-2.955.398-3.239-.138-.23-.46-.385-.936-.616a27.479 27.479 0 0 1-.37-.18Z" fill="#fff"/></symbol></svg>